# AST/ASF file generated using VICON BodyLanguage
# -----------------------------------------------
:version 1.10
:name VICON
:units
  mass 1.0
  length 0.45
  angle deg
:documentation
   .ast/.asf automatically generated from VICON data using
   VICON BodyBuilder and BodyLanguage model FoxedUp or BRILLIANT.MOD
:root
   order TX TY TZ RX RY RZ
   axis XYZ
   position 0 0 0  
   orientation 0 0 0 
:bonedata
  begin
     id 1 
     name lhipjoint
     direction 0.602128 -0.715006 0.355257 
     length 2.21237 
     axis 0 0 0  XYZ
  end
  begin
     id 2 
     name lfemur
     direction 0.34202 -0.939693 0  
     length 6.71649  
     axis 0 0 20  XYZ
    dof rx ry rz
    limits (-160.0 20.0)
           (-70.0 70.0)
           (-60.0 70.0)
  end
  begin
     id 3 
     name ltibia
     direction 0.34202 -0.939693 0   
     length 6.97123   
     axis 0 0 20   XYZ
    dof rx
    limits (-10.0 170.0)
  end
  begin
     id 4 
     name lfoot
     direction 0.0655697 -0.180151 0.981451   
     length 1.80924   
     axis -90 7.62852e-016 20   XYZ
    dof rx rz
    limits (-45.0 90.0)
           (-70.0 20.0)
  end
  begin
     id 5 
     name ltoes
     direction 1.53545e-011 -4.21827e-011 1   
     length 0.916331   
     axis -90 7.62852e-016 20   XYZ
    dof rx
    limits (-90.0 20.0)
  end
  begin
     id 6 
     name rhipjoint
     direction -0.625414 -0.698792 0.347201   
     length 2.2637  
     axis 0 0 0  XYZ 
  end
  begin
     id 7 
     name rfemur
     direction -0.34202 -0.939693 0   
     length 7.07595   
     axis 0 0 -20   XYZ
    dof rx ry rz
    limits (-160.0 20.0)
           (-70.0 70.0)
           (-70.0 60.0)
  end
  begin
     id 8 
     name rtibia
     direction -0.34202 -0.939693 0   
     length 7.22924   
     axis 0 0 -20   XYZ
    dof rx
    limits (-10.0 170.0)
 end
 begin
     id 9 
     name rfoot
     direction -0.0766747 -0.210662 0.974547   
     length 1.98482  
     axis -90 -7.62852e-016 -20   XYZ
    dof rx rz
    limits (-45.0 90.0)
           (-20.0 70.0)
  end
  begin
     id 10 
     name rtoes
     direction -1.53532e-011 -4.21867e-011 1   
     length 0.999842   
     axis -90 -7.62852e-016 -20   XYZ
    dof rx
    limits (-90.0 20.0)
  end
  begin
     id 11 
     name lowerback
     direction -0.0224668 0.997354 -0.0691422   
     length 2.09945   
     axis 0 0 0   XYZ
    dof rx ry rz
    limits (-20.0 45.0)
           (-30.0 30.0)
           (-30.0 30.0)
  end
  begin
     id 12 
     name upperback
     direction 0.0134698 0.998451 -0.0539888   
     length 2.09758   
     axis 0 0 0   XYZ
    dof rx ry rz
    limits (-20.0 45.0)
           (-30.0 30.0)
           (-30.0 30.0)
  end
  begin
     id 13 
     name thorax
     direction 0.0241905 0.99948 -0.0213333   
     length 2.10428   
     axis 0 0 0   XYZ
    dof rx ry rz
    limits (-20.0 45.0)
           (-30.0 30.0)
           (-30.0 30.0)
  end
  begin
     id 14 
     name lowerneck
     direction -0.00866847 0.995978 0.0891737   
     length 1.3959   
     axis 0 0 0   XYZ
    dof rx ry rz
    limits (-20.0 45.0)
           (-30.0 30.0)
           (-30.0 30.0)
  end
  begin
     id 15 
     name upperneck
     direction 0.0680679 0.992203 0.104404   
     length 1.39452   
     axis 0 0 0   XYZ
    dof rx ry rz
    limits (-20.0 45.0)
           (-30.0 30.0)
           (-30.0 30.0)
  end
  begin
     id 16
     name head
     direction 0.0242216 0.999358 0.0264054  
     length 1.40433  
     axis 0 0 0   XYZ
    dof rx ry rz
    limits (-20.0 45.0)
           (-30.0 30.0)
           (-30.0 30.0)
  end
  begin
     id 17 
     name lclavicle
     direction 0.929368 0.362991 -0.0671771  
     length 3.04887  
     axis 0 0 0   XYZ
    dof ry rz
    limits (-20.0 10.0)
           (0.0 20.0)
  end
  begin
     id 18 
     name lhumerus
     direction 1 -4.48967e-011 -7.13741e-028   
     length 4.77195   
     axis -180 -30 -90   XYZ
    dof rx ry rz
    limits (-60.0 90.0)
           (-90.0 90.0)
           (-90.0 90.0)
  end
  begin
     id 19
     name lradius
     direction 1 -4.48977e-011 3.60404e-027   
     length 2.98444   
     axis -180 -30 -90   XYZ
    dof rx
    limits (-10.0 170.0)
  end
  begin
     id 20
     name lwrist
     direction 1 -4.48997e-011 7.54877e-027   
     length 1.49222   
     axis -7.18178e-015 90 90   XYZ
    dof ry
    limits (-180.0 0.0)
 end
  begin
     id 21 
     name lhand
     direction 1 -4.489e-011 1.51105e-026   
     length 0.992285   
     axis -9.63605e-015 90 90   XYZ
    dof rx rz
    limits (-90.0 90.0)
           (-45.0 45.0)
  end
  begin
     id 22 
     name lfingers
     direction 1 -4.48998e-011 3.01948e-026   
     length 0.800006   
     axis -1.92718e-014 90 90   XYZ
    dof rx
    limits (0.0 90.0)
  end
  begin
     id 23
     name lthumb
     direction 0.707107 -6.34881e-011 0.707107   
     length 1.14865   
     axis -90 45 -3.53137e-014   XYZ
    dof rx rz
    limits (-45.0 45.0)
           (-45.0 45.0)
  end
  begin
     id 24 
     name rclavicle
     direction -0.945672 0.324529 0.0196374   
     length 3.4236  
     axis 0 0 0   XYZ 
    dof ry rz
    limits (-10.0 20.0)
           (-20.0 0.0)
  end
  begin
     id 25 
     name rhumerus
     direction -1 -4.4896e-011 1.02757e-029  
     length 4.62052   
     axis -180 30 90   XYZ
    dof rx ry rz
    limits (-90.0 60.0)
           (-90.0 90.0)
           (-90.0 90.0)
  end
  begin
     id 26 
     name rradius
     direction -1 -4.48982e-011 3.85962e-027   
     length 2.95332   
     axis -180 30 90   XYZ
    dof rx
    limits (-10.0 170.0)
  end
  begin
     id 27 
     name rwrist
     direction -1 -4.48961e-011 7.55118e-027   
     length 1.47666   
     axis -7.18178e-015 -90 -90   XYZ
    dof ry
    limits (-180.0 0.0)
  end
  begin
     id 28
     name rhand
     direction -1 -4.48984e-011 1.50994e-026   
     length 0.990956   
     axis -9.63605e-015 -90 -90   XYZ
    dof rx rz
    limits (-90.0 90.0)
           (-45.0 45.0)
  end
  begin
     id 29
     name rfingers
     direction -1 -4.4892e-011 3.02158e-026   
     length 0.798934   
     axis -1.92718e-014 -90 -90   XYZ
    dof rx
    limits (0.0 90.0)
  end
  begin
     id 30
     name rthumb
     direction -0.707107 -6.34916e-011 0.707107   
     length 1.14711   
     axis -90 -45 3.53137e-014   XYZ
    dof rx rz
    limits (-45.0 45.0)
           (-45.0 45.0)
  end
:hierarchy
  begin
    root lhipjoint rhipjoint lowerback
    lhipjoint lfemur
    lfemur ltibia
    ltibia lfoot
    lfoot ltoes
    rhipjoint rfemur
    rfemur rtibia
    rtibia rfoot
    rfoot rtoes
    lowerback upperback
    upperback thorax
    thorax lowerneck lclavicle rclavicle
    lowerneck upperneck
    upperneck head
    lclavicle lhumerus
    lhumerus lradius
    lradius lwrist
    lwrist lhand lthumb
    lhand lfingers
    rclavicle rhumerus
    rhumerus rradius
    rradius rwrist
    rwrist rhand rthumb
    rhand rfingers
  end

#!OML:ASF H:\ManfredObstacles\Project 1\Capture day 1\Session 1\Male.ASF
:FULLY-SPECIFIED
:DEGREES
216
root 6.04508 16.2121 5.97725 -171.169 -44.3982 -180.203
lowerback -10.3728 -3.91485 -4.15824
upperback 2.96305 -4.82398 1.68764
thorax 9.51164 -2.63292 3.23907
lowerneck 0.866661 -2.21267 -5.32289
upperneck 5.29264 -3.5459 9.07481
head 1.84161 -1.80953 3.88599
rclavicle 1.62631e-014 -1.98785e-015
rhumerus -47.6895 -32.3254 -60.7575
rradius 22.9671
rwrist 39.0409
rhand 0.588443 -4.43281
rfingers 7.12502
rthumb 26.1539 -32.6514
lclavicle 1.62631e-014 -1.98785e-015
lhumerus -24.7997 8.19535 87.1575
lradius 21.668
lwrist -26.9051
lhand -7.63579 7.03412
lfingers 7.12502
lthumb 18.2593 36.1971
rfemur -34.4873 -3.49199 18.2164
rtibia 23.1364
rfoot -11.6155 0.507587
rtoes 6.18257
lfemur 9.151 -6.13776 -20.2593
ltibia 0.91972
lfoot 5.10346 -15.7701
ltoes 24.0522
217
root 5.95248 16.2231 5.75869 -171.636 -44.6599 -179.518
lowerback -10.5249 -4.00045 -3.68026
upperback 2.97898 -5.03698 2.03379
thorax 9.62782 -2.72427 3.29043
lowerneck 0.640879 -2.16591 -5.7286
upperneck 5.44267 -3.48002 9.14371
head 1.93926 -1.775 3.99107
rclavicle -2.73329e-016 2.68359e-014
rhumerus -47.5265 -32.4461 -60.3178
rradius 22.6951
rwrist 39.5541
rhand 0.607878 -4.56178
rfingers 7.12502
rthumb 26.1725 -32.7776
lclavicle -2.73329e-016 2.68359e-014
lhumerus -24.9214 9.66477 86.9674
lradius 21.2003
lwrist -27.8949
lhand -7.83613 7.13072
lfingers 7.12502
lthumb 18.0665 36.3117
rfemur -34.126 -3.53598 19.0117
rtibia 23.9276
rfoot -11.0697 0.793628
rtoes 9.55024
lfemur 8.31508 -6.61787 -19.4458
ltibia 4.16345
lfoot 4.14001 -15.9793
ltoes 21.5597
218
root 5.85742 16.2373 5.54345 -171.894 -44.6947 -179.034
lowerback -10.6666 -3.99128 -3.18756
upperback 2.90428 -5.11008 2.22266
thorax 9.60665 -2.73711 3.19627
lowerneck 0.565509 -2.15373 -5.83394
upperneck 5.53698 -3.45653 9.03576
head 1.98194 -1.76306 3.97376
rclavicle 2.40778e-014 -7.35503e-015
rhumerus -47.5196 -32.7389 -59.8262
rradius 22.443
rwrist 40.0684
rhand 0.752444 -4.63049
rfingers 7.12502
rthumb 26.3109 -32.8257
lclavicle 2.40778e-014 -7.35503e-015
lhumerus -25.3433 10.9831 86.5966
lradius 20.9004
lwrist -28.6969
lhand -7.95033 7.18472
lfingers 7.12502
lthumb 17.9566 36.3758
rfemur -33.8502 -3.74211 19.7259
rtibia 24.7195
rfoot -10.8953 1.68318
rtoes 13.3957
lfemur 7.59071 -6.89189 -18.8634
ltibia 7.10652
lfoot 3.49206 -15.9533
ltoes 18.8321
219
root 5.76317 16.2556 5.33099 -171.909 -44.5412 -178.865
lowerback -10.7799 -3.91608 -2.83349
upperback 2.77845 -5.05784 2.25193
thorax 9.4984 -2.68898 3.03712
lowerneck 0.62926 -2.15798 -5.65013
upperneck 5.60267 -3.45744 8.78945
head 1.9803 -1.76423 3.85028
rclavicle -3.34207e-014 -3.77691e-015
rhumerus -47.6863 -33.1101 -59.3746
rradius 22.2994
rwrist 40.3833
rhand 0.739959 -4.56576
rfingers 7.12502
rthumb 26.2989 -32.7628
lclavicle -3.34207e-014 -3.77691e-015
lhumerus -25.9209 12.5195 85.9941
lradius 20.5836
lwrist -29.7169
lhand -8.03447 7.13514
lfingers 7.12502
lthumb 17.8757 36.3336
rfemur -33.5727 -3.87245 20.18
rtibia 25.5003
rfoot -11.0101 2.50104
rtoes 15.031
lfemur 6.79028 -7.00394 -18.5987
ltibia 10.1343
lfoot 3.29266 -15.8359
ltoes 16.5404
220
root 5.66858 16.2779 5.11864 -171.795 -44.443 -178.875
lowerback -10.9273 -3.92552 -2.70016
upperback 2.6777 -5.09346 2.33277
thorax 9.47226 -2.69963 3.0361
lowerneck 0.682652 -2.1092 -5.66432
upperneck 5.58864 -3.37915 8.61994
head 1.95505 -1.72772 3.79463
rclavicle 6.20705e-014 9.93923e-015
rhumerus -47.548 -33.0707 -59.2603
rradius 22.3526
rwrist 40.271
rhand 0.646574 -4.46747
rfingers 7.12502
rthumb 26.2095 -32.6778
lclavicle 6.20705e-014 9.93923e-015
lhumerus -26.5513 13.528 85.6097
lradius 20.5274
lwrist -30.001
lhand -7.9819 7.20802
lfingers 7.12502
lthumb 17.9263 36.4019
rfemur -33.2585 -4.09809 20.4902
rtibia 26.2847
rfoot -11.4563 3.26701
rtoes 15.6095
lfemur 5.87277 -7.64152 -18.5227
ltibia 13.2964
lfoot 3.6035 -15.0199
ltoes 15.9199
221
root 5.57801 16.3001 4.90095 -171.765 -44.495 -178.956
lowerback -11.0066 -3.9995 -2.71286
upperback 2.65488 -5.19477 2.38657
thorax 9.50896 -2.75123 3.07612
lowerneck 0.81868 -2.03793 -5.69237
upperneck 5.36786 -3.26678 8.59035
head 1.84814 -1.67517 3.79152
rclavicle 3.59303e-014 -1.98785e-015
rhumerus -47.0885 -32.6175 -59.7373
rradius 22.609
rwrist 39.6418
rhand 0.791203 -4.66365
rfingers 7.12502
rthumb 26.348 -32.8533
lclavicle 3.59303e-014 -1.98785e-015
lhumerus -27.1739 13.3518 85.4665
lradius 20.8097
lwrist -29.0813
lhand -7.74228 7.41298
lfingers 7.12502
lthumb 18.1568 36.5855
rfemur -32.6883 -4.34682 20.7317
rtibia 26.9342
rfoot -12.095 4.10564
rtoes 16.2294
lfemur 4.77124 -8.17083 -18.4449
ltibia 16.8769
lfoot 4.51465 -14.0998
ltoes 16.4275
